<svg width="24" height="24" viewBox="0 0 24 24" fill="none" xmlns="http://www.w3.org/2000/svg">
<path d="M19.5 12C19.5001 10.7933 19.2069 9.60462 18.6456 8.53636L17.5235 9.65843C17.8388 10.3988 18.0008 11.1953 18 12H19.5Z" fill="#FEFEFE"/>
<path d="M17.5606 7.5L16.5 6.43943L12.964 9.97546C12.6637 9.82885 12.3342 9.75179 12 9.75C11.555 9.75 11.12 9.88197 10.75 10.1292C10.38 10.3764 10.0916 10.7278 9.92128 11.139C9.75098 11.5501 9.70642 12.0025 9.79324 12.439C9.88005 12.8754 10.0943 13.2763 10.409 13.591C10.7237 13.9057 11.1246 14.12 11.5611 14.2068C11.9975 14.2936 12.4499 14.249 12.861 14.0787C13.2722 13.9084 13.6236 13.62 13.8708 13.25C14.118 12.88 14.25 12.445 14.25 12C14.2482 11.6658 14.1712 11.3363 14.0246 11.036L17.5606 7.5ZM12 12.75C11.8517 12.75 11.7067 12.706 11.5833 12.6236C11.46 12.5412 11.3639 12.4241 11.3071 12.287C11.2503 12.15 11.2355 11.9992 11.2644 11.8537C11.2934 11.7082 11.3648 11.5746 11.4697 11.4697C11.5746 11.3648 11.7082 11.2934 11.8537 11.2644C11.9992 11.2355 12.15 11.2503 12.287 11.3071C12.4241 11.3639 12.5412 11.46 12.6236 11.5833C12.706 11.7067 12.75 11.8517 12.75 12C12.7497 12.1988 12.6706 12.3895 12.53 12.53C12.3895 12.6706 12.1988 12.7497 12 12.75Z" fill="#FEFEFE"/>
<path d="M12 6C12.8047 5.99921 13.6013 6.16129 14.3417 6.47648L15.4638 5.3544C14.3215 4.75634 13.0441 4.46331 11.7554 4.50366C10.4666 4.54402 9.2101 4.9164 8.10745 5.58476C7.0048 6.25312 6.09337 7.19482 5.46138 8.31871C4.82939 9.4426 4.49825 10.7106 4.50001 12H6C6.00183 10.4093 6.63456 8.8842 7.75938 7.75938C8.8842 6.63456 10.4093 6.00183 12 6Z" fill="#FEFEFE"/>
<path d="M12 22.5C9.9233 22.5 7.89323 21.8842 6.16652 20.7304C4.4398 19.5767 3.09399 17.9368 2.29927 16.0182C1.50455 14.0996 1.29661 11.9884 1.70176 9.95156C2.1069 7.91476 3.10693 6.04383 4.57538 4.57538C6.04383 3.10693 7.91476 2.1069 9.95156 1.70176C11.9884 1.29661 14.0996 1.50455 16.0182 2.29927C17.9368 3.09399 19.5767 4.4398 20.7304 6.16652C21.8842 7.89323 22.5 9.9233 22.5 12C22.4969 14.7838 21.3896 17.4527 19.4212 19.4212C17.4527 21.3896 14.7838 22.4969 12 22.5ZM12 3C10.22 3 8.47992 3.52785 6.99987 4.51678C5.51983 5.50571 4.36628 6.91132 3.68509 8.55585C3.0039 10.2004 2.82567 12.01 3.17294 13.7558C3.5202 15.5016 4.37737 17.1053 5.63604 18.364C6.89472 19.6226 8.49836 20.4798 10.2442 20.8271C11.99 21.1743 13.7996 20.9961 15.4442 20.3149C17.0887 19.6337 18.4943 18.4802 19.4832 17.0001C20.4722 15.5201 21 13.78 21 12C20.9973 9.61389 20.0482 7.32629 18.361 5.63905C16.6737 3.95181 14.3861 3.00272 12 3Z" fill="#FEFEFE"/>
</svg>
