<svg width="24" height="24" viewBox="0 0 24 24" fill="none" xmlns="http://www.w3.org/2000/svg">
<path fill-rule="evenodd" clip-rule="evenodd" d="M16 3.99875C16 3.7225 16.2238 3.49875 16.5 3.49875C16.7762 3.49875 17 3.7225 17 3.99875V6.25C17 6.52625 16.7762 6.75 16.5 6.75C16.2238 6.75 16 6.52625 16 6.25V10.3263L15 10.8313V8.58875C14.7163 8.70125 14.3988 8.77875 14.085 8.8125C12.3512 8.9975 9.62125 9 9.50625 9C9.39125 9 6.66125 8.9975 4.9275 8.8125C4.60875 8.77875 4.2875 8.69875 4 8.585V14.4288C4 15.0538 4.045 15.3575 4.07875 15.4987C4.38325 15.4975 4.97075 15.4987 5.56478 15.5H5.56501H5.56519L5.575 15.5H5.88125C6.00125 15.1825 6.00125 14.2188 6.00125 13.5V13H12V14H7C6.9975 14.5 6.985 14.9625 6.93375 15.33C6.86 15.8637 6.63875 16.5 6.00125 16.5H5.57375C5.005 16.4987 4.055 16.4975 3.91 16.5C3.71375 16.5063 3.5325 16.4325 3.39125 16.2937C3.15625 16.0638 3 15.6588 3 14.4288V6.25C3 6.52625 2.77625 6.75 2.5 6.75C2.22375 6.75 2 6.52625 2 6.25V3.99875C2 3.7225 2.22375 3.49875 2.5 3.49875C2.77625 3.49875 3 3.7225 3 3.99875V2.255C3 1.56375 3.58375 1 4.3 1H14.7C15.4163 1 16 1.56375 16 2.255V3.99875ZM6.3125 10.2863C6.26125 9.95125 6.01875 9.78625 5.65625 9.78625C5.29375 9.78625 5 10.01 5 10.2863V11.5025C5 11.7788 5.29375 12.0025 5.65625 12.0025H5.84375C6.20625 12.0025 6.5 11.7788 6.5 11.5025C6.5 11.5025 6.36375 10.6213 6.3125 10.2863ZM13.3438 9.78625C12.9812 9.78625 12.7388 9.95125 12.6875 10.2863C12.6362 10.6213 12.5 11.5025 12.5 11.5025C12.5 11.685 12.6275 11.8438 12.8188 11.9312L14 11.335V10.2863C14 10.01 13.7063 9.78625 13.3438 9.78625ZM4 7.5125V7.49875L4.00064 7.50123C4.00164 7.50507 4.0025 7.50836 4.0025 7.5125H4ZM13.9788 7.81875C14.5262 7.76 14.8813 7.56125 15 7.46V2.255C15 2.115 14.865 2 14.7 2H4.3C4.135 2 4 2.115 4 2.255V7.4525C4.11125 7.55125 4.47125 7.75875 5.03375 7.81875C6.71375 7.9975 9.47875 8 9.50625 8C9.53375 8 12.2975 7.9975 13.9788 7.81875Z" fill="black"/>
<path d="M16.5 11C15.9563 11 15.5156 11.4701 15.5156 12.05L15.5156 12.0555C14.1319 12.5049 13.125 13.877 13.125 15.5L13.125 18.2L12.3295 19.0485C12.1185 19.2736 12 19.5788 12 19.8971V20.6C12 20.9314 12.2518 21.2 12.5625 21.2H20.4375C20.7482 21.2 21 20.9314 21 20.6V19.8971C21 19.5788 20.8815 19.2736 20.6705 19.0485L19.875 18.2V15.5C19.875 13.877 18.8681 12.5049 17.4844 12.0555L17.4844 12.05C17.4844 11.4701 17.0437 11 16.5 11ZM13.9688 18.2L13.9688 15.5C13.9688 14.0088 15.102 12.8 16.5 12.8C17.898 12.8 19.0312 14.0088 19.0312 15.5V18.2C19.0312 18.4387 19.1201 18.6676 19.2784 18.8364L20.0739 19.6849C20.1266 19.7412 20.1562 19.8175 20.1562 19.8971V20.3H12.8438V19.8971C12.8438 19.8175 12.8734 19.7412 12.9261 19.6849L13.7216 18.8364C13.8799 18.6676 13.9688 18.4387 13.9688 18.2ZM17.625 21.8C17.625 22.4627 17.1213 23 16.5 23C15.8787 23 15.375 22.4627 15.375 21.8H17.625Z" fill="#192435"/>
</svg>
