<svg width="24" height="24" viewBox="0 0 24 24" fill="none" xmlns="http://www.w3.org/2000/svg">
<path d="M4.5 5.75001C4.5 4.23123 5.73121 3 7.25 3H16.75C18.2688 3 19.5 4.23122 19.5 5.75V18.25C19.5 19.7688 18.2688 21 16.75 21H7.25C5.73122 21 4.5 19.7688 4.5 18.25V14.25H6V18.25C6 18.9404 6.55964 19.5 7.25 19.5H16.75C17.4404 19.5 18 18.9404 18 18.25V5.75C18 5.05964 17.4404 4.5 16.75 4.5H7.25C6.55965 4.5 6 5.05965 6 5.75001V9.5H4.5V5.75001ZM10.9697 7.46967C10.6768 7.76256 10.6768 8.23744 10.9697 8.53033L13.6893 11.25L2.75 11.25C2.33579 11.25 2 11.5858 2 12C2 12.4142 2.33579 12.75 2.75 12.75L13.6893 12.75L10.9697 15.4697C10.6768 15.7626 10.6768 16.2374 10.9697 16.5303C11.2626 16.8232 11.7374 16.8232 12.0303 16.5303L16.0303 12.5303C16.3232 12.2374 16.3232 11.7626 16.0303 11.4697L12.0303 7.46967C11.7374 7.17678 11.2626 7.17678 10.9697 7.46967Z" fill="#FEFEFE"/>
</svg>
