<svg width="24" height="24" viewBox="0 0 24 24" fill="none" xmlns="http://www.w3.org/2000/svg">
<path d="M8.5 4.5C8.10221 4.5 7.75718 4.73223 7.59585 5.07182L7.58573 5.09313L4.78213 10.1481C5.17197 10.0505 5.57996 9.99865 6 9.99865C7.36273 9.99865 8.59812 10.5438 9.5 11.4279V5.5C9.5 4.94772 9.05228 4.5 8.5 4.5ZM9.5 14.9986C9.5 13.0656 7.933 11.4986 6 11.4986C4.93088 11.4986 3.97427 11.9771 3.33112 12.7342C2.8123 13.345 2.5 14.1344 2.5 14.9986C2.5 16.9316 4.067 18.4986 6 18.4986C7.933 18.4986 9.5 16.9316 9.5 14.9986ZM10.9441 15.7486C10.5823 18.1543 8.50652 19.9986 6 19.9986C3.23858 19.9986 1 17.7601 1 14.9986C1 13.7932 1.42748 12.6858 2.13826 11.8225L6.25211 4.40502C6.65719 3.5746 7.51076 3 8.5 3C9.61941 3 10.567 3.73572 10.8855 4.75H13.1145C13.433 3.73572 14.3806 3 15.5 3C16.4892 3 17.3428 3.57461 17.7479 4.40504L21.8617 11.8225C22.5725 12.6858 23 13.7932 23 14.9986C23 17.7601 20.7614 19.9986 18 19.9986C15.4935 19.9986 13.4177 18.1543 13.0559 15.7486H10.9441ZM14.5 14.9986C14.5 16.9316 16.067 18.4986 18 18.4986C19.933 18.4986 21.5 16.9316 21.5 14.9986C21.5 14.1344 21.1877 13.345 20.6689 12.7342C20.0257 11.9771 19.0691 11.4986 18 11.4986C16.067 11.4986 14.5 13.0656 14.5 14.9986ZM14.5 11.4279C15.4019 10.5438 16.6373 9.99865 18 9.99865C18.42 9.99865 18.828 10.0505 19.2179 10.1481L16.4143 5.09313L16.4041 5.07182C16.2428 4.73223 15.8978 4.5 15.5 4.5C14.9477 4.5 14.5 4.94772 14.5 5.5V11.4279ZM13 11.2486V6.25H11V11.2486H13ZM11 12.7486V14.2486H13V12.7486H11Z" fill="#FEFEFE"/>
</svg>
