<svg width="24" height="24" viewBox="0 0 24 24" fill="none" xmlns="http://www.w3.org/2000/svg">
<path d="M5.19185 6.91007L7.41093 7.34504L7.95345 6.91279C8.45465 6.51347 9.01537 6.18719 9.61951 5.94928L10.2643 5.69534L10.9964 3.5585C11.3251 3.5199 11.66 3.5 12.0001 3.5C12.3403 3.5 12.6752 3.5199 13.0038 3.55849L13.7359 5.69542L14.3807 5.94937C14.9847 6.18728 15.5454 6.51354 16.0465 6.91283L16.5891 7.34508L18.8084 6.91006C19.2087 7.44444 19.5472 8.02701 19.8137 8.64715L18.3276 10.3513L18.4292 11.0358C18.4757 11.3496 18.5 11.6715 18.5 12C18.5 12.3285 18.4757 12.6504 18.4292 12.9642L18.3276 13.6487L19.8137 15.3528C19.5472 15.973 19.2087 16.5556 18.8084 17.0899L16.5891 16.6549L16.0465 17.0872C15.5454 17.4865 14.9847 17.8127 14.3807 18.0506L13.7359 18.3046L13.0038 20.4415C12.6752 20.4801 12.3403 20.5 12.0001 20.5C11.66 20.5 11.3251 20.4801 10.9964 20.4415L10.2643 18.3047L9.61952 18.0507C9.01537 17.8128 8.45465 17.4865 7.95345 17.0872L7.41093 16.655L5.19185 17.0899C4.79157 16.5555 4.45306 15.9729 4.18654 15.3528L5.67242 13.6489L5.57082 12.9644C5.52423 12.6505 5.49997 12.3285 5.49997 12C5.49997 11.6715 5.52423 11.3495 5.57082 11.0356L5.67242 10.3511L4.18654 8.64721C4.45306 8.02705 4.79157 7.44447 5.19185 6.91007ZM7.01875 5.73962L5.15892 5.37507C4.81597 5.30785 4.45981 5.42217 4.23925 5.69326C3.57572 6.50878 3.03816 7.4309 2.65622 8.42995C2.5314 8.75646 2.61049 9.12218 2.84023 9.38563L4.08707 10.8154C4.0297 11.2019 3.99997 11.5975 3.99997 12C3.99997 12.4025 4.0297 12.7981 4.08707 13.1846L2.84023 14.6144C2.61049 14.8778 2.5314 15.2435 2.65622 15.57C3.03816 16.5691 3.57572 17.4912 4.23925 18.3067C4.45981 18.5778 4.81597 18.6922 5.15892 18.6249L7.01875 18.2604C7.63486 18.7513 8.32507 19.1531 9.06989 19.4464L9.68382 21.2385C9.79724 21.5696 10.0749 21.8211 10.4206 21.876C10.9351 21.9576 11.4627 22 12.0001 22C12.5376 22 13.0651 21.9576 13.5796 21.876C13.9253 21.8211 14.203 21.5696 14.3164 21.2385L14.9303 19.4463C15.6751 19.153 16.3652 18.7512 16.9812 18.2603L18.8413 18.6249C19.1843 18.6922 19.5405 18.5778 19.761 18.3068C20.4245 17.4912 20.9621 16.5692 21.344 15.5701C21.4689 15.2436 21.3898 14.8779 21.16 14.6144L19.9129 13.1843C19.9703 12.7979 20 12.4024 20 12C20 11.5976 19.9703 11.2021 19.9129 10.8157L21.16 9.38556C21.3898 9.12211 21.4689 8.75639 21.344 8.42988C20.9621 7.43085 20.4245 6.50875 19.761 5.69325C19.5405 5.42216 19.1843 5.30784 18.8413 5.37506L16.9812 5.73966C16.3652 5.24883 15.6751 4.84702 14.9303 4.55371L14.3164 2.76147C14.203 2.43039 13.9253 2.17888 13.5796 2.12403C13.0651 2.0424 12.5376 2 12.0001 2C11.4627 2 10.9351 2.0424 10.4206 2.12405C10.0749 2.1789 9.79724 2.4304 9.68382 2.76149L9.06989 4.5536C8.32507 4.84691 7.63486 5.24875 7.01875 5.73962ZM9.25 12C9.25 10.4812 10.4812 9.25 12 9.25C13.5188 9.25 14.75 10.4812 14.75 12C14.75 13.5188 13.5188 14.75 12 14.75C10.4812 14.75 9.25 13.5188 9.25 12ZM12 7.75C9.65279 7.75 7.75 9.65279 7.75 12C7.75 14.3472 9.65279 16.25 12 16.25C14.3472 16.25 16.25 14.3472 16.25 12C16.25 9.65279 14.3472 7.75 12 7.75Z" fill="#FEFEFE"/>
</svg>
