<svg width="24" height="24" viewBox="0 0 24 24" fill="none" xmlns="http://www.w3.org/2000/svg">
<path d="M1 12C1 5.92487 5.92487 1 12 1C18.0751 1 23 5.92487 23 12V22.047C23 22.5733 22.5733 23 22.047 23H14C13.5858 23 13.25 22.6642 13.25 22.25C13.25 21.8358 13.5858 21.5 14 21.5H21.5V17.4874C20.5688 18.4218 19.2805 19 17.8571 19C17.3838 19 17 18.6162 17 18.1429V8.85714C17 8.38376 17.3838 8 17.8571 8C19.0652 8 20.1759 8.41652 21.0536 9.11378C19.832 5.27824 16.2404 2.5 12 2.5C7.75958 2.5 4.16805 5.27824 2.94637 9.11377C3.82407 8.41652 4.93482 8 6.14286 8C6.61624 8 7 8.38376 7 8.85714V18.1429C7 18.6162 6.61624 19 6.14286 19C3.37981 19 1.12568 16.821 1.00508 14.0877C1.00172 14.059 1 14.0297 1 14V12ZM21.5 13.1429C21.5 11.3503 20.2053 9.86017 18.5 9.55654V17.4435C20.2053 17.1398 21.5 15.6497 21.5 13.8571V13.1429ZM2.5 13.8571C2.5 15.6497 3.79471 17.1398 5.5 17.4435V9.55654C3.79471 9.86017 2.5 11.3503 2.5 13.1429V13.8571Z" fill="#FEFEFE"/>
</svg>
