<svg width="24" height="24" viewBox="0 0 24 24" fill="none" xmlns="http://www.w3.org/2000/svg">
<path d="M4.75 3C3.7835 3 3 3.7835 3 4.75V19.25C3 20.2165 3.7835 21 4.75 21H19.25C20.2165 21 21 20.2165 21 19.25V4.75C21 3.7835 20.2165 3 19.25 3H4.75ZM4.5 4.75C4.5 4.61193 4.61193 4.5 4.75 4.5H11.2508L11.2503 14.5008L4.5 14.5001V4.75ZM4.5 16.0001L11.2502 16.0008L11.25 19.5H4.75C4.61193 19.5 4.5 19.3881 4.5 19.25V16.0001ZM12.75 19.5L12.7505 10.5001L19.5 10.5008V19.25C19.5 19.3881 19.3881 19.5 19.25 19.5H12.75ZM12.7506 9.00007L12.7508 4.5H19.25C19.3881 4.5 19.5 4.61193 19.5 4.75V9.00076L12.7506 9.00007Z" fill="#FEFEFE"/>
</svg>
