<svg width="24" height="24" viewBox="0 0 24 24" fill="none" xmlns="http://www.w3.org/2000/svg">
<path fill-rule="evenodd" clip-rule="evenodd" d="M3.5 2C2.67157 2 2 2.67157 2 3.5L2.00007 20.5003C2.0001 21.3287 2.67166 22 3.50006 22H20.5C21.3284 22 22 21.3284 22 20.5V11C22 10.1716 21.3284 9.5 20.5 9.5H13V3.5C13 2.67157 12.3284 2 11.5 2H3.5ZM11.5 3.5V20.5H3.5V3.5H11.5ZM20.5 20.5H13V11H20.5V20.5ZM14.5 13C14.5 12.7239 14.7239 12.5 15 12.5H18.5C18.7761 12.5 19 12.7239 19 13V13.5C19 13.7761 18.7761 14 18.5 14H15C14.7239 14 14.5 13.7761 14.5 13.5V13ZM15 15C14.7239 15 14.5 15.2239 14.5 15.5V16C14.5 16.2761 14.7239 16.5 15 16.5H18.5C18.7761 16.5 19 16.2761 19 16V15.5C19 15.2239 18.7761 15 18.5 15H15ZM14.5 18C14.5 17.7239 14.7239 17.5 15 17.5H18.5C18.7761 17.5 19 17.7239 19 18V18.5C19 18.7761 18.7761 19 18.5 19H15C14.7239 19 14.5 18.7761 14.5 18.5V18ZM5 10.5C5 10.2239 5.22386 10 5.5 10H6.5C6.77614 10 7 10.2239 7 10.5V13C7 13.2761 6.77614 13.5 6.5 13.5H5.5C5.22386 13.5 5 13.2761 5 13V10.5ZM5.5 15C5.22386 15 5 15.2239 5 15.5V18C5 18.2761 5.22386 18.5 5.5 18.5H6.5C6.77614 18.5 7 18.2761 7 18V15.5C7 15.2239 6.77614 15 6.5 15H5.5ZM5 5.5C5 5.22386 5.22386 5 5.5 5H6.5C6.77614 5 7 5.22386 7 5.5V8C7 8.27614 6.77614 8.5 6.5 8.5H5.5C5.22386 8.5 5 8.27614 5 8V5.5ZM8.5 5C8.22386 5 8 5.22386 8 5.5V8C8 8.27614 8.22386 8.5 8.5 8.5H9.5C9.77614 8.5 10 8.27614 10 8V5.5C10 5.22386 9.77614 5 9.5 5H8.5ZM8 10.5C8 10.2239 8.22386 10 8.5 10H9.5C9.77614 10 10 10.2239 10 10.5V13C10 13.2761 9.77614 13.5 9.5 13.5H8.5C8.22386 13.5 8 13.2761 8 13V10.5ZM8.5 15C8.22386 15 8 15.2239 8 15.5V18C8 18.2761 8.22386 18.5 8.5 18.5H9.5C9.77614 18.5 10 18.2761 10 18V15.5C10 15.2239 9.77614 15 9.5 15H8.5Z" fill="#FEFEFE"/>
</svg>
