<svg width="24" height="24" viewBox="0 0 24 24" fill="none" xmlns="http://www.w3.org/2000/svg">
<path d="M10.6222 1.16012C11.4745 0.666679 12.5255 0.66668 13.3778 1.16012L21.0021 5.57414C21.6197 5.93172 22 6.59132 22 7.30499V16.1417C22 17.123 21.4771 18.03 20.6278 18.5216L13.0021 22.9366C12.3822 23.2954 11.6178 23.2954 10.9979 22.9366L3.37215 18.5216C2.5229 18.03 2 17.123 2 16.1417V7.30499C2 6.59132 2.38029 5.93172 2.99793 5.57414L10.6222 1.16012ZM12.6263 2.45826C12.2389 2.23397 11.7611 2.23397 11.3737 2.45826L8.8719 3.90667L16.625 8.39531L19.7531 6.5843L12.6263 2.45826ZM20.5 7.88514L12.75 12.372V21.3493L19.8763 17.2235C20.2623 17 20.5 16.5878 20.5 16.1417V7.88514ZM11.25 21.3493V12.372L3.5 7.88514V16.1417C3.5 16.5878 3.73768 17 4.1237 17.2235L11.25 21.3493ZM4.2469 6.5843L12 11.0729L15.1281 9.26193L7.375 4.7733L4.2469 6.5843Z" fill="#21232C"/>
</svg>
