<svg width="24" height="24" viewBox="0 0 24 24" fill="none" xmlns="http://www.w3.org/2000/svg">
<path fill-rule="evenodd" clip-rule="evenodd" d="M16 3.99875C16 3.7225 16.2238 3.49875 16.5 3.49875C16.7762 3.49875 17 3.7225 17 3.99875V6.25C17 6.52625 16.7762 6.75 16.5 6.75C16.2238 6.75 16 6.52625 16 6.25V10.3263L15 10.8313V8.58875C14.7163 8.70125 14.3988 8.77875 14.085 8.8125C12.3512 8.9975 9.62125 9 9.50625 9C9.39125 9 6.66125 8.9975 4.9275 8.8125C4.60875 8.77875 4.2875 8.69875 4 8.585V14.4288C4 15.0538 4.045 15.3575 4.07875 15.4987C4.38325 15.4975 4.97075 15.4987 5.56478 15.5H5.56501H5.56519L5.575 15.5H5.88125C6.00125 15.1825 6.00125 14.2188 6.00125 13.5V13H12V14H7C6.9975 14.5 6.985 14.9625 6.93375 15.33C6.86 15.8637 6.63875 16.5 6.00125 16.5H5.57375C5.005 16.4987 4.055 16.4975 3.91 16.5C3.71375 16.5063 3.5325 16.4325 3.39125 16.2937C3.15625 16.0638 3 15.6588 3 14.4288V6.25C3 6.52625 2.77625 6.75 2.5 6.75C2.22375 6.75 2 6.52625 2 6.25V3.99875C2 3.7225 2.22375 3.49875 2.5 3.49875C2.77625 3.49875 3 3.7225 3 3.99875V2.255C3 1.56375 3.58375 1 4.3 1H14.7C15.4163 1 16 1.56375 16 2.255V3.99875ZM5.65625 9.78625C6.01875 9.78625 6.26125 9.95125 6.3125 10.2863C6.36375 10.6213 6.5 11.5025 6.5 11.5025C6.5 11.7788 6.20625 12.0025 5.84375 12.0025H5.65625C5.29375 12.0025 5 11.7788 5 11.5025V10.2863C5 10.01 5.29375 9.78625 5.65625 9.78625ZM20.5572 19.3577C21.357 18.1208 22 16.7837 22 15.6813C22 12.5196 19.9853 11 17.5 11C15.0147 11 13 12.5196 13 15.6813C13 16.7837 13.643 18.1208 14.4428 19.3577L15.2386 20.4974C16.0398 21.5704 16.8429 22.4599 17.2416 22.8858C17.3841 23.0381 17.6159 23.0381 17.7584 22.8858C18.1571 22.4599 18.9602 21.5704 19.7614 20.4974L20.5572 19.3577ZM20.4494 17.239C20.7407 16.5963 20.875 16.0707 20.875 15.6813C20.875 14.3567 20.4609 13.5084 19.9116 12.9856C19.3494 12.4504 18.5222 12.1397 17.5 12.1397C16.4778 12.1397 15.6506 12.4504 15.0884 12.9856C14.5391 13.5084 14.125 14.3567 14.125 15.6813C14.125 16.0707 14.2593 16.5963 14.5506 17.239C14.8357 17.8681 15.2363 18.5336 15.6838 19.1813C16.3059 20.0819 16.9873 20.9033 17.5 21.4861C18.0127 20.9033 18.6941 20.0819 19.3162 19.1813C19.7637 18.5336 20.1643 17.8681 20.4494 17.239ZM17.5 18.028C18.8462 18.028 19.9375 16.9225 19.9375 15.5587C19.9375 14.195 18.8462 13.0894 17.5 13.0894C16.1538 13.0894 15.0625 14.195 15.0625 15.5587C15.0625 16.9225 16.1538 18.028 17.5 18.028ZM18.8125 15.5587C18.8125 16.2931 18.2249 16.8884 17.5 16.8884C16.7751 16.8884 16.1875 16.2931 16.1875 15.5587C16.1875 14.8244 16.7751 14.2291 17.5 14.2291C18.2249 14.2291 18.8125 14.8244 18.8125 15.5587ZM13.3438 9.78625C12.9812 9.78625 12.7388 9.95125 12.6875 10.2863C12.6362 10.6213 12.5 11.5025 12.5 11.5025C12.5 11.685 12.6275 11.8438 12.8188 11.9312L14 11.335V10.2863C14 10.01 13.7063 9.78625 13.3438 9.78625ZM4 7.5125V7.49875L4.00064 7.50123C4.00164 7.50507 4.0025 7.50836 4.0025 7.5125H4ZM13.9788 7.81875C14.5262 7.76 14.8813 7.56125 15 7.46V2.255C15 2.115 14.865 2 14.7 2H4.3C4.135 2 4 2.115 4 2.255V7.4525C4.11125 7.55125 4.47125 7.75875 5.03375 7.81875C6.71375 7.9975 9.47875 8 9.50625 8C9.53375 8 12.2975 7.9975 13.9788 7.81875Z" fill="#FEFEFE"/>
</svg>
